<?xml version="1.0" encoding="utf-8"?>
<svg xmlns="http://www.w3.org/2000/svg" height="50" width="50" viewBox="0 0 50 50">
  <g>
    <path id="path1" transform="rotate(0,25,25) translate(16.9562518596649,12) scale(0.8125,0.8125)  " fill="#FFFFFF" d="M4.6999991,23.900001C4.8999991,24.200001 5.1999991,24.6 5.3999989,24.900001 4.2999992,25.500001 3.5999992,26.400001 3.5999992,27.3 3.5999992,29.200001 6.4999988,30.8 9.7999983,30.8 13.099998,30.8 15.999997,29.200001 15.999997,27.3 15.999997,26.400001 15.299997,25.500001 14.199998,24.900001 14.399998,24.6 14.699997,24.300001 14.899998,23.900001 16.299997,24.800001 17.199997,25.900001 17.199997,27.3 17.199997,29.900001 13.899998,32.000001 9.7999983,32.000001 5.699999,32.000001 2.3999996,29.900001 2.3999996,27.3 2.3999996,26.000001 3.2999992,24.800001 4.6999991,23.900001z M9.8999982,5.500001C11.599998,5.500001 12.999998,6.9000006 12.999998,8.6000004 12.999998,10.300001 11.599998,11.700001 9.8999982,11.700001 8.1999986,11.700001 6.7999988,10.300001 6.7999986,8.6000004 6.7999988,6.9000006 8.1999986,5.500001 9.8999982,5.500001z M9.7999983,3.2000008C6.8999988,3.2000008 4.499999,5.6000004 4.4999988,8.500001 4.499999,11.400001 6.8999988,13.800001 9.7999983,13.800001 12.799998,13.800001 15.099998,11.400001 15.099998,8.500001 15.199997,5.6000004 12.799998,3.2000008 9.7999983,3.2000008z M9.8999982,0C15.299997,0 19.799996,4.4000006 19.799996,9.9000006 19.799996,15.300001 9.8999984,27.400001 9.8999982,27.400001 9.8999984,27.400001 0,15.300001 0,9.9000006 0,4.4000006 4.3999991,0 9.8999982,0z" />
  </g>
</svg>

