<?xml version="1.0" encoding="utf-8"?>
<svg xmlns="http://www.w3.org/2000/svg" height="50" width="50" viewBox="0 0 50 50">
  <g>
    <path id="path1" transform="rotate(0,25,25) translate(12.2295321870966,12) scale(0.812499806284951,0.812499806284951)  " fill="#FFFFFF" d="M26.363064,21.388062C26.963034,21.388062,27.562027,21.588074,28.062022,22.088076L30.759995,24.787059C31.66001,25.686078,31.66001,27.185074,30.759995,28.085072L30.660996,28.185078 28.162028,30.683072 21.965096,24.487069 24.56407,22.088076 24.664074,21.98807C25.163063,21.588074,25.763064,21.388062,26.363064,21.388062z M17.867144,9.0950276C18.967108,9.0950276 20.166102,9.4950225 21.066088,10.394043 22.465092,11.79404 22.665102,13.893045 21.865092,15.492049 21.965096,14.092051 21.366102,12.493047 20.166102,11.294038 18.967108,10.09503 17.368124,9.4950225 15.968145,9.5950286 16.46814,9.2950398 17.168144,9.0950276 17.867144,9.0950276z M20.066098,4.6970045C21.765085,4.6970045 23.464075,5.297012 24.76408,6.5960271 26.863058,8.6950318 27.162037,11.79404 25.863068,14.192027 26.063048,12.093022 25.163063,9.6950347 23.364069,7.8960187 21.565106,6.0970022 19.267124,5.1970059 17.06814,5.3970186 18.067124,4.9970237 19.067114,4.6970045 20.066098,4.6970045z M5.4742577,0.50000156C6.0742581,0.50000144,6.6732514,0.70001421,7.1732466,1.1990083L9.8721955,3.8980214C10.771204,4.7970106,10.771204,6.2970149,9.8721955,7.1960045L9.8721955,7.2960107 7.4732316,9.9950234C6.0742581,13.893045 8.1732371,17.291035 11.47121,20.589049 14.769151,23.887061 18.067124,25.986067 22.065102,24.587077L28.262032,30.783078C22.165106,33.982091 14.569171,30.583096 7.9732268,23.987069 1.3763056,17.391041 -2.0216718,9.7950417 1.2763002,3.6980085L3.7752695,1.1990083 3.8752747,1.0990022C4.2752645,0.70001421,4.8742578,0.50000144,5.4742577,0.50000156z M22.065102,0L22.365086,0C24.664074,0 26.963034,0.8999965 28.762028,2.6990129 31.66001,5.5970008 32.160004,9.9950234 30.361012,13.393044 30.561022,10.394043 29.361021,7.0960285 26.863058,4.598005 24.264084,1.9989987 20.966112,0.7999901 17.967118,1.0990022 19.267124,0.39999504 20.666098,0.10000639 22.065102,0z" />
  </g>
</svg>

